<svg width="36" height="35" viewBox="0 0 36 35" fill="none" xmlns="http://www.w3.org/2000/svg">
<path d="M29.7309 18.5943C29.7913 23.8911 35.4375 25.6537 35.5 25.6761C35.4521 25.8004 34.5978 28.1879 32.5254 30.6541C30.7339 32.7862 28.8743 34.9105 25.9451 34.9545C23.0672 34.9977 22.1416 33.5648 18.8511 33.5648C15.5615 33.5648 14.5332 34.9105 11.8087 34.9977C8.98137 35.0849 6.82833 32.6922 5.022 30.5678C1.3306 26.2225 -1.49031 18.2888 2.29748 12.9335C4.17913 10.274 7.542 8.59003 11.1918 8.54684C13.9682 8.50376 16.5888 10.0677 18.286 10.0677C19.9822 10.0677 23.1667 8.18693 26.5146 8.46313C27.9159 8.51066 31.8502 8.924 34.3763 11.9349C34.1726 12.0376 29.6821 14.1662 29.7309 18.5944M24.3219 5.58832C25.8231 4.10883 26.8333 2.04935 26.5576 0C24.3939 0.0708016 21.7777 1.17401 20.2257 2.65261C18.8348 3.96211 17.6168 6.05788 17.9455 8.06659C20.3572 8.21855 22.8207 7.06869 24.3219 5.58832Z" fill="black"/>
</svg>
