<svg width="36" height="35" viewBox="0 0 36 35" fill="none" xmlns="http://www.w3.org/2000/svg">
<path d="M35.5 17.6069C35.5 7.88296 27.6649 0 18 0C8.33508 0 0.5 7.88296 0.5 17.6069C0.5 26.395 6.89953 33.6792 15.2656 35V22.6965H10.8223V17.6069H15.2656V13.7279C15.2656 9.31518 17.8783 6.87771 21.8757 6.87771C23.7903 6.87771 25.793 7.2216 25.793 7.2216V11.5546H23.5863C21.4124 11.5546 20.7344 12.9118 20.7344 14.3043V17.6069H25.5879L24.812 22.6965H20.7344V35C29.1005 33.6792 35.5 26.3952 35.5 17.6069Z" fill="#1877F2"/>
<path d="M24.812 22.5586L25.5879 17.5H20.7344V14.2174C20.7344 12.8332 21.4124 11.4844 23.5863 11.4844H25.793V7.17773C25.793 7.17773 23.7903 6.83594 21.8756 6.83594C17.8783 6.83594 15.2656 9.25859 15.2656 13.6445V17.5H10.8223V22.5586H15.2656V34.7874C16.1702 34.9291 17.0844 35.0002 18 35C18.9156 35.0002 19.8298 34.9291 20.7344 34.7874V22.5586H24.812Z" fill="white"/>
</svg>
