<svg width="24" height="25" viewBox="0 0 24 25" fill="none" xmlns="http://www.w3.org/2000/svg">
<g clip-path="url(#clip0_128_381)">
<path d="M8.36104 1.28937C5.96307 2.12125 3.89506 3.70018 2.46078 5.79425C1.02649 7.88832 0.301526 10.3871 0.392371 12.9237C0.483217 15.4602 1.38508 17.9008 2.9655 19.8869C4.54592 21.873 6.72158 23.2999 9.17292 23.9581C11.1603 24.4709 13.2424 24.4935 15.2404 24.0238C17.0504 23.6172 18.7238 22.7476 20.0967 21.5C21.5256 20.1619 22.5627 18.4596 23.0967 16.5762C23.677 14.5281 23.7803 12.3742 23.3985 10.28H12.2385V14.9094H18.7017C18.5725 15.6477 18.2957 16.3524 17.8878 16.9813C17.48 17.6102 16.9494 18.1503 16.3279 18.5694C15.5387 19.0914 14.649 19.4427 13.716 19.6006C12.7803 19.7746 11.8205 19.7746 10.8848 19.6006C9.9364 19.4045 9.03923 19.0131 8.25042 18.4513C6.9832 17.5542 6.03169 16.2799 5.53167 14.81C5.02319 13.3126 5.02319 11.6893 5.53167 10.1919C5.88759 9.14228 6.47598 8.18663 7.25292 7.39625C8.14203 6.47515 9.26766 5.81674 10.5063 5.49327C11.745 5.16979 13.0488 5.19374 14.2748 5.5625C15.2325 5.85648 16.1083 6.37013 16.8323 7.0625C17.561 6.3375 18.2885 5.61062 19.0148 4.88187C19.3898 4.49 19.7985 4.11687 20.1679 3.71562C19.0627 2.68714 17.7654 1.88685 16.3504 1.36062C13.7736 0.424977 10.9541 0.399833 8.36104 1.28937Z" fill="white"/>
<path d="M8.3607 1.28937C10.9536 0.399224 13.7731 0.423707 16.3501 1.35874C17.7654 1.88855 19.062 2.69269 20.1657 3.72499C19.7907 4.12624 19.3951 4.50124 19.0126 4.89124C18.2851 5.61749 17.5582 6.34124 16.8319 7.06249C16.1079 6.37013 15.2321 5.85648 14.2745 5.56249C13.0489 5.19244 11.7451 5.16711 10.5061 5.48926C9.26712 5.81141 8.14079 6.46861 7.2507 7.38874C6.47376 8.17912 5.88538 9.13477 5.52945 10.1844L1.64258 7.17499C3.03384 4.41605 5.44273 2.30566 8.3607 1.28937Z" fill="#E33629"/>
<path d="M0.611401 10.1562C0.820316 9.12085 1.16716 8.11816 1.64265 7.17499L5.52953 10.1919C5.02105 11.6892 5.02105 13.3126 5.52953 14.81C4.23453 15.81 2.9389 16.815 1.64265 17.825C0.452308 15.4556 0.0892746 12.7559 0.611401 10.1562Z" fill="#F8BD00"/>
<path d="M12.2381 10.2781H23.3981C23.7799 12.3724 23.6766 14.5263 23.0963 16.5744C22.5623 18.4578 21.5252 20.16 20.0963 21.4981C18.8419 20.5194 17.5819 19.5481 16.3275 18.5694C16.9494 18.1499 17.4802 17.6092 17.8881 16.9796C18.296 16.3501 18.5726 15.6447 18.7013 14.9056H12.2381C12.2363 13.3644 12.2381 11.8213 12.2381 10.2781Z" fill="#587DBD"/>
<path d="M1.64062 17.825C2.93688 16.825 4.2325 15.82 5.5275 14.81C6.02851 16.2804 6.98139 17.5548 8.25 18.4512C9.04127 19.0105 9.94037 19.3987 10.89 19.5912C11.8257 19.7652 12.7855 19.7652 13.7213 19.5912C14.6542 19.4333 15.5439 19.0821 16.3331 18.56C17.5875 19.5387 18.8475 20.51 20.1019 21.4887C18.7292 22.737 17.0558 23.6073 15.2456 24.0144C13.2476 24.4841 11.1655 24.4616 9.17813 23.9487C7.60632 23.5291 6.13814 22.7892 4.86563 21.7756C3.51874 20.7063 2.41867 19.3587 1.64062 17.825Z" fill="#319F43"/>
</g>
<defs>
<clipPath id="clip0_128_381">
<rect width="24" height="24" fill="white" transform="translate(0 0.5)"/>
</clipPath>
</defs>
</svg>
