<svg width="22" height="27" viewBox="0 0 22 27" fill="none" xmlns="http://www.w3.org/2000/svg">
<path d="M2 10.8751C2 17.0953 7.45657 22.2386 9.87243 24.2103C10.2196 24.4923 10.3931 24.6359 10.6516 24.7077C10.8521 24.7641 11.1479 24.7641 11.3484 24.7077C11.6069 24.6359 11.7804 24.4936 12.1276 24.2103C14.5434 22.2386 20 17.0953 20 10.8751C19.9978 9.70747 19.7638 8.55178 19.3114 7.47473C18.859 6.39769 18.1973 5.42061 17.3643 4.59986C15.6686 2.93205 13.3819 1.99792 11 2C8.61813 1.99792 6.33144 2.93205 4.63571 4.59986C3.80159 5.41976 3.13907 6.39667 2.68662 7.47391C2.23416 8.55114 2.00077 9.70725 2 10.8751Z" stroke="#50508D" stroke-width="3" stroke-linecap="round" stroke-linejoin="round"/>
<path d="M8.42871 9.69189C8.42871 10.3719 8.69963 11.024 9.18187 11.5049C9.6641 11.9857 10.3182 12.2558 11.0001 12.2558C11.6821 12.2558 12.3362 11.9857 12.8184 11.5049C13.3006 11.024 13.5716 10.3719 13.5716 9.69189C13.5716 9.01188 13.3006 8.35973 12.8184 7.8789C12.3362 7.39806 11.6821 7.12793 11.0001 7.12793C10.3182 7.12793 9.6641 7.39806 9.18187 7.8789C8.69963 8.35973 8.42871 9.01188 8.42871 9.69189Z" stroke="#50508D" stroke-width="3" stroke-linecap="round" stroke-linejoin="round"/>
</svg>
