<svg width="25" height="22" viewBox="0 0 25 22" fill="none" xmlns="http://www.w3.org/2000/svg">
<path fill-rule="evenodd" clip-rule="evenodd" d="M17.0167 0.800049C17.6852 0.800072 18.3405 0.986209 18.9091 1.33761C19.4777 1.68901 19.9373 2.19179 20.2363 2.78964L21.8995 6.11483C22.1923 5.99483 22.4803 5.86523 22.7635 5.72603C23.0484 5.58377 23.3781 5.56049 23.6801 5.66131C23.9821 5.76213 24.2317 5.97879 24.3739 6.26363C24.5162 6.54847 24.5395 6.87816 24.4386 7.18017C24.3378 7.48218 24.1212 7.73176 23.8363 7.87402C23.5479 8.0024 23.2579 8.1272 22.9663 8.24842L24.1195 10.556C24.3698 11.0564 24.5001 11.6082 24.4999 12.1676V15.2C24.4999 15.7065 24.393 16.2073 24.1862 16.6696C23.9795 17.132 23.6774 17.5455 23.2999 17.8832V19.4C23.2999 19.8774 23.1103 20.3352 22.7727 20.6728C22.4352 21.0103 21.9773 21.2 21.4999 21.2C21.0225 21.2 20.5647 21.0103 20.2271 20.6728C19.8896 20.3352 19.6999 19.8774 19.6999 19.4V18.8H5.29998V19.4C5.29998 19.8774 5.11034 20.3352 4.77278 20.6728C4.43521 21.0103 3.97738 21.2 3.49999 21.2C3.0226 21.2 2.56477 21.0103 2.2272 20.6728C1.88964 20.3352 1.7 19.8774 1.7 19.4V17.8832C0.963198 17.2232 0.5 16.2656 0.5 15.2V12.1664C0.500224 11.6078 0.630459 11.0568 0.880399 10.5572L2.02399 8.26762C1.7344 8.14602 1.4484 8.01522 1.166 7.87522C0.882596 7.73111 0.667171 7.48141 0.566159 7.17995C0.465147 6.87848 0.486638 6.5494 0.626 6.26363C0.69639 6.12255 0.793894 5.99671 0.912938 5.89333C1.03198 5.78995 1.17023 5.71104 1.31979 5.66111C1.46935 5.61118 1.62728 5.59122 1.78455 5.60236C1.94183 5.6135 2.09537 5.65552 2.23639 5.72603C2.52039 5.86603 2.80839 5.99563 3.10039 6.11483L4.76359 2.79084C5.06244 2.19277 5.52194 1.68974 6.0906 1.33812C6.65925 0.9865 7.31459 0.800183 7.98317 0.800049H17.0167ZM7.09998 11.6C6.62259 11.6 6.16475 11.7897 5.82719 12.1272C5.48962 12.4648 5.29998 12.9226 5.29998 13.4C5.29998 13.8774 5.48962 14.3352 5.82719 14.6728C6.16475 15.0104 6.62259 15.2 7.09998 15.2C7.57737 15.2 8.0352 15.0104 8.37277 14.6728C8.71033 14.3352 8.89997 13.8774 8.89997 13.4C8.89997 12.9226 8.71033 12.4648 8.37277 12.1272C8.0352 11.7897 7.57737 11.6 7.09998 11.6ZM17.8999 11.6C17.4226 11.6 16.9647 11.7897 16.6272 12.1272C16.2896 12.4648 16.0999 12.9226 16.0999 13.4C16.0999 13.8774 16.2896 14.3352 16.6272 14.6728C16.9647 15.0104 17.4226 15.2 17.8999 15.2C18.3773 15.2 18.8352 15.0104 19.1727 14.6728C19.5103 14.3352 19.6999 13.8774 19.6999 13.4C19.6999 12.9226 19.5103 12.4648 19.1727 12.1272C18.8352 11.7897 18.3773 11.6 17.8999 11.6ZM17.0167 3.20004H7.98317C7.78566 3.20001 7.5912 3.24873 7.41704 3.34189C7.24287 3.43504 7.0944 3.56974 6.98478 3.73404L6.91038 3.86364L5.38638 6.90923C7.24398 7.46603 9.74717 8.00002 12.5 8.00002C15.0703 8.00002 17.4211 7.53443 19.2319 7.01963L19.6123 6.90923L18.0895 3.86364C18.0012 3.68702 17.8707 3.53492 17.7095 3.42084C17.5483 3.30675 17.3615 3.23421 17.1655 3.20964L17.0179 3.20004H17.0167Z" fill="white"/>
</svg>
