<svg width="23" height="20" viewBox="0 0 23 20" fill="none" xmlns="http://www.w3.org/2000/svg">
<path d="M19.0263 0.528809C19.6405 0.528809 20.2295 0.772793 20.6638 1.20709C21.0981 1.64138 21.3421 2.23041 21.3421 2.8446V4.00249H14.3947C12.8593 4.00249 11.3867 4.61245 10.301 5.69819C9.21522 6.78393 8.60526 8.2565 8.60526 9.79197C8.60526 11.3274 9.21522 12.8 10.301 13.8857C11.3867 14.9715 12.8593 15.5814 14.3947 15.5814H21.3421V16.7393C21.3421 17.3535 21.0981 17.9426 20.6638 18.3768C20.2295 18.8111 19.6405 19.0551 19.0263 19.0551H2.81579C2.2016 19.0551 1.61257 18.8111 1.17828 18.3768C0.743984 17.9426 0.5 17.3535 0.5 16.7393V2.8446C0.5 2.23041 0.743984 1.64138 1.17828 1.20709C1.61257 0.772793 2.2016 0.528809 2.81579 0.528809H19.0263ZM20.1842 6.31828C20.7984 6.31828 21.3874 6.56227 21.8217 6.99656C22.256 7.43086 22.5 8.01989 22.5 8.63407V10.9499C22.5 11.564 22.256 12.1531 21.8217 12.5874C21.3874 13.0217 20.7984 13.2657 20.1842 13.2657H14.3947C13.4735 13.2657 12.5899 12.8997 11.9385 12.2482C11.287 11.5968 10.9211 10.7132 10.9211 9.79197C10.9211 8.87069 11.287 7.98714 11.9385 7.3357C12.5899 6.68426 13.4735 6.31828 14.3947 6.31828H20.1842ZM14.3947 8.63407C14.0876 8.63407 13.7931 8.75606 13.576 8.97321C13.3588 9.19036 13.2368 9.48487 13.2368 9.79197C13.2368 10.0991 13.3588 10.3936 13.576 10.6107C13.7931 10.8279 14.0876 10.9499 14.3947 10.9499C14.7018 10.9499 14.9963 10.8279 15.2135 10.6107C15.4306 10.3936 15.5526 10.0991 15.5526 9.79197C15.5526 9.48487 15.4306 9.19036 15.2135 8.97321C14.9963 8.75606 14.7018 8.63407 14.3947 8.63407Z" fill="white"/>
</svg>
